<svg width="74" height="58" viewBox="0 0 74 58" fill="none" xmlns="http://www.w3.org/2000/svg">
<g clip-path="url(#clip0_11_21)">
<path d="M53.8501 17.9803H64.4507C67.0527 17.9803 69.1621 20.0126 69.1621 22.5195C69.1621 25.0264 67.0527 27.0587 64.4507 27.0587H38.5382C35.9362 27.0587 33.8268 25.0264 33.8268 22.5195C33.8268 20.0126 35.9362 17.9803 38.5382 17.9803H53.8501Z" fill="#1C4E75"/>
<path d="M53.1375 0C52.5047 -1.36546e-06 51.8782 0.12495 51.2936 0.367719C50.709 0.610488 50.1779 0.966321 49.7305 1.4149C49.283 1.86348 48.9281 2.39603 48.686 2.98212C48.4438 3.56822 48.3192 4.1964 48.3192 4.83079V45.1262C48.3192 46.8168 48.6513 48.4908 49.2966 50.0528C49.9419 51.6147 50.8877 53.0339 52.0801 54.2293C53.2724 55.4248 54.6879 56.3731 56.2458 57.02C57.8037 57.667 59.4734 58 61.1596 58H61.1596C62.8459 58 64.5156 57.667 66.0734 57.02C67.6313 56.3731 69.0468 55.4248 70.2392 54.2293C71.4315 53.0339 72.3773 51.6147 73.0226 50.0528C73.6679 48.4908 74 46.8168 74 45.1262V43.7233C74 42.4421 73.4924 41.2134 72.5888 40.3074C71.6852 39.4015 70.4597 38.8925 69.1818 38.8925V38.8925C67.9168 38.8925 66.7025 39.3913 65.8012 40.2812C64.8998 41.171 64.3836 42.3806 64.3641 43.6488L64.3351 45.5352C64.3341 46.1168 64.1789 46.6877 63.8854 47.1894C63.5919 47.6911 63.1706 48.1055 62.6647 48.3902C62.2041 48.6415 61.6832 48.76 61.1596 48.7326C60.926 48.7214 60.6942 48.6851 60.4683 48.6244C59.764 48.4203 59.1459 47.99 58.7092 47.3995C58.2724 46.8091 58.0412 46.0912 58.0509 45.3561V4.92621C58.0509 4.27929 57.9238 3.6387 57.6769 3.04103C57.43 2.44335 57.068 1.90029 56.6118 1.44285C56.1555 0.985408 55.6139 0.622547 55.0178 0.374982C54.4216 0.127418 53.7827 -1.36547e-06 53.1375 0V0Z" fill="#1C4E75"/>
<path d="M48.3221 41.1468V45.124C48.3221 48.5383 49.675 51.8128 52.083 54.2271C54.491 56.6414 57.757 57.9978 61.1625 57.9978H61.1626C64.3638 57.9974 67.4494 56.7981 69.8144 54.6351C72.1795 52.472 73.6533 49.5012 73.9469 46.3052L69.9685 43.2502C69.6157 42.9793 69.2001 42.8027 68.7606 42.7368C68.3211 42.6709 67.8721 42.718 67.4557 42.8737L64.3611 44.0302L64.3383 45.5117C64.339 46.0793 64.1939 46.6375 63.9169 47.1325C63.64 47.6275 63.2405 48.0426 62.757 48.3379C62.2755 48.6228 61.7209 48.7593 61.1625 48.7304C60.9289 48.7192 60.6972 48.6829 60.4712 48.6222C59.0094 48.2305 58.0538 46.8145 58.0538 45.2975V42.7655L57.803 42.4826C57.5642 42.2132 57.2727 41.9959 56.9466 41.8441C56.6205 41.6923 56.2669 41.6093 55.9075 41.6002C55.5481 41.5911 55.1907 41.6561 54.8574 41.7912C54.5241 41.9263 54.222 42.1286 53.9699 42.3856V42.3856C53.5323 42.8317 52.9505 43.1068 52.3288 43.1617C51.7071 43.2166 51.0863 43.0475 50.5777 42.685L49.0393 41.5884C48.8095 41.4266 48.57 41.2791 48.3221 41.1468V41.1468Z" fill="#19A2CC"/>
<path d="M4.71628 0C5.84402 -2.74098e-06 6.93441 0.405309 7.78959 1.14239C8.64477 1.87948 9.20808 2.8995 9.37731 4.01737L14.5836 38.4072C14.6116 38.5923 14.7068 38.7604 14.8509 38.8795C14.995 38.9985 15.1778 39.0601 15.3644 39.0522C15.5509 39.0444 15.728 38.9678 15.8617 38.8372C15.9954 38.7065 16.0763 38.5309 16.0888 38.3442L18.3654 4.40947C18.4456 3.21349 18.9761 2.09275 19.8494 1.27408C20.7227 0.455421 21.8736 -7.65264e-07 23.0692 0H23.5847C24.2071 2.65418e-07 24.8233 0.123559 25.3978 0.363548C25.9723 0.603538 26.4938 0.955207 26.932 1.39827C27.3703 1.84133 27.7167 2.36701 27.9513 2.94499C28.1859 3.52297 28.3041 4.1418 28.2989 4.76579L28.0221 38.3132C28.0204 38.5212 28.0949 38.7225 28.2315 38.8789C28.3682 39.0354 28.5574 39.1361 28.7632 39.1618C28.969 39.1875 29.1771 39.1366 29.3479 39.0186C29.5187 38.9006 29.6403 38.7238 29.6896 38.5218L38.2111 3.60331C38.462 2.57544 39.0496 1.6617 39.8799 1.00839C40.7101 0.355083 41.735 -3.28493e-07 42.7905 0H42.8183C43.5427 5.69507e-08 44.2574 0.167371 44.9068 0.489121C45.5562 0.81087 46.123 1.27834 46.5631 1.85525C47.0031 2.43216 47.3047 3.10299 47.4443 3.81566C47.5839 4.52833 47.5579 5.26368 47.3681 5.96461L34.3355 54.1139C34.0337 55.229 33.3741 56.2136 32.4587 56.9155C31.5433 57.6175 30.4229 57.9978 29.2704 57.9978C28.0592 57.9978 26.8853 57.5778 25.9478 56.8091C25.0103 56.0403 24.3667 54.9701 24.1264 53.78L23.1282 44.5843C23.0685 44.289 22.9106 44.0227 22.6803 43.8292C22.45 43.6356 22.161 43.5262 21.8605 43.5189C21.5601 43.5116 21.2661 43.6068 21.0267 43.7889C20.7873 43.9711 20.6167 44.2293 20.5428 44.5214L18.8201 54.8182C18.5902 55.7271 18.0646 56.5334 17.3265 57.1092C16.5883 57.6851 15.6797 57.9978 14.7444 57.9978V57.9978C13.7831 57.9978 12.851 57.6676 12.1031 57.0622C11.3552 56.4568 10.8368 55.6128 10.6342 54.6707L0.107767 5.72292C-0.0405009 5.03347 -0.033 4.3195 0.12972 3.63333C0.29244 2.94717 0.606255 2.30621 1.04816 1.75745C1.49006 1.20869 2.04885 0.766033 2.68356 0.461933C3.31828 0.157833 4.01282 -1.5846e-06 4.71628 0V0Z" fill="#1C4E75"/>
<path d="M25.4611 42.9316L22.8094 43.9357C22.9741 44.1172 23.0855 44.3409 23.1311 44.582L24.1294 53.7777C24.3697 54.9679 25.0132 56.038 25.9507 56.8068C26.8883 57.5755 28.0622 57.9955 29.2733 57.9955H29.2733C30.4258 57.9955 31.5462 57.6152 32.4617 56.9133C33.3771 56.2113 34.0366 55.2268 34.3385 54.1117L37.2952 43.1879C35.9306 43.2566 34.5636 43.111 33.2438 42.7564L32.6167 42.5859C30.2546 41.9436 27.7507 42.0646 25.4611 42.9316Z" fill="#19A2CC"/>
<path d="M9.4653 42.3472L8.11093 42.9216L10.6157 54.5687C10.7802 55.3844 11.1778 56.1346 11.76 56.7279C12.3422 57.3211 13.0839 57.7319 13.8947 57.91C14.9555 58.1292 16.0597 57.93 16.9777 57.3536C17.8956 56.7773 18.5566 55.8684 18.823 54.8159L20.5207 44.6692C19.9832 44.6837 19.4603 44.4926 19.0582 44.1348C16.4119 41.768 12.7313 40.9621 9.4653 42.3472Z" fill="#19A2CC"/>
</g>
<defs>
<clipPath id="clip0_11_21">
<rect width="74" height="58" fill="white"/>
</clipPath>
</defs>
</svg>
